<?xml version="1.0" standalone="no"?>
<!DOCTYPE svg PUBLIC "-//W3C//DTD SVG 20010904//EN"
 "http://www.w3.org/TR/2001/REC-SVG-20010904/DTD/svg10.dtd">
<svg version="1.0" xmlns="http://www.w3.org/2000/svg"
 width="203.000000pt" height="203.000000pt" viewBox="0 0 203.000000 203.000000"
 preserveAspectRatio="xMidYMid meet">
<metadata>
Created by potrace 1.11, written by Peter Selinger 2001-2013
</metadata>
<g transform="translate(0.000000,203.000000) scale(0.100000,-0.100000)"
fill="#000000" stroke="none">
<path d="M326 1901 c-2 -3 -6 -22 -8 -41 l-3 -35 -74 -5 c-68 -5 -75 -7 -76
-27 -2 -22 2 -23 77 -23 76 0 79 -1 76 -22 -3 -21 -10 -24 -68 -28 -57 -4 -65
-8 -65 -25 0 -17 8 -21 65 -25 63 -5 65 -6 68 -33 3 -23 0 -28 -15 -27 -10 1
-48 2 -85 1 -66 -1 -68 -2 -68 -26 l0 -25 198 0 198 0 0 25 c0 25 -1 25 -83
25 l-83 0 0 30 0 30 73 0 c68 0 76 -2 103 -30 25 -26 36 -29 85 -30 l55 0 -1
-47 0 -48 -83 -3 -82 -3 0 -27 c0 -28 0 -28 68 -27 98 1 97 1 97 -53 l0 -47
-62 -3 c-61 -3 -63 -4 -63 -31 0 -26 2 -27 48 -28 26 0 54 -1 62 -2 12 -1 15
-14 14 -68 -1 -38 -2 -71 -3 -75 0 -5 -25 -8 -55 -8 l-54 0 11 -31 c12 -31 13
-31 71 -27 83 6 96 24 96 132 l0 82 47 -1 c37 0 49 -4 51 -18 4 -20 61 -25 63
-4 1 6 1 49 1 95 0 54 4 82 11 83 7 1 19 2 27 3 8 0 16 13 18 29 3 24 0 27
-26 27 l-29 0 1 75 c1 43 -3 76 -9 76 -5 1 -32 2 -60 3 -27 1 -49 6 -48 11 1
6 16 34 34 63 42 70 33 82 -68 82 -73 0 -74 1 -67 23 13 41 10 52 -16 55 -22
2 -29 -6 -57 -65 -18 -38 -51 -88 -73 -113 -34 -39 -39 -42 -40 -22 0 21 -4
22 -70 22 -68 0 -70 1 -70 25 0 25 1 25 78 25 77 0 78 0 78 25 0 25 -2 25 -77
25 l-78 0 -3 43 c-3 36 -6 42 -26 43 -12 1 -24 -1 -26 -5z m442 -172 c-12 -22
-28 -45 -35 -51 -13 -10 -110 -19 -125 -11 -4 2 8 25 27 51 34 48 34 48 95 50
l61 1 -23 -40z m92 -169 l0 -50 -50 0 -50 0 0 50 0 50 50 0 50 0 0 -50z m-2
-158 l3 -52 -50 0 -51 0 0 53 0 53 48 -1 47 0 3 -53z"/>
<path d="M1429 1898 c-1 -13 -2 -20 -14 -85 l-6 -33 -173 0 -173 0 1 -32 1
-33 163 1 c89 1 162 -2 162 -5 0 -20 -65 -113 -100 -145 -43 -39 -171 -106
-202 -106 -24 0 -31 -16 -16 -40 17 -29 60 -22 154 25 93 46 167 118 206 201
l31 66 31 -58 c43 -81 138 -174 217 -212 97 -47 110 -48 137 -13 l22 31 -27 6
c-58 14 -150 63 -196 104 -46 41 -107 119 -107 138 0 5 66 9 148 9 81 1 153 2
160 2 7 1 12 14 12 31 l0 30 -190 0 -190 0 6 43 c3 23 7 52 9 65 3 19 -1 22
-31 22 -20 0 -34 -5 -35 -12z"/>
<path d="M1375 1534 c-19 -14 -19 -16 -2 -25 10 -6 43 -31 73 -55 l54 -44 31
19 31 19 -68 51 c-74 55 -88 59 -119 35z"/>
<path d="M203 1295 c0 -150 3 -215 11 -216 6 0 19 -2 29 -4 14 -3 17 5 19 53
0 32 0 67 -1 80 -2 21 1 22 89 22 l90 0 0 -50 0 -50 -45 0 c-25 0 -45 -2 -45
-4 0 -24 22 -54 37 -51 10 2 32 4 50 4 60 2 63 11 63 232 l0 199 -149 0 -149
0 1 -215z m237 130 l0 -35 -89 0 -89 0 1 35 1 35 88 0 88 0 0 -35z m0 -115 l0
-30 -90 0 -90 0 0 30 0 30 90 0 90 0 0 -30z"/>
<path d="M1404 1404 c-21 -15 -21 -15 23 -62 24 -26 56 -61 70 -79 24 -31 26
-32 49 -16 13 8 24 19 24 24 0 10 -130 149 -139 148 -3 0 -16 -7 -27 -15z"/>
<path d="M1708 1373 c-24 -6 -23 -14 12 -83 17 -33 39 -84 51 -114 20 -54 20
-55 50 -44 26 9 30 14 24 37 -11 45 -97 211 -109 210 -6 -1 -19 -3 -28 -6z"/>
<path d="M1139 1327 c-6 -23 -25 -73 -42 -111 -30 -66 -30 -69 -12 -82 31 -23
41 -17 65 37 18 42 60 164 60 174 0 2 -13 8 -30 13 -29 11 -30 10 -41 -31z"/>
<path d="M1255 1267 c0 -118 6 -140 41 -155 38 -18 327 -16 363 2 26 14 51 67
51 110 0 13 -35 36 -55 36 -1 0 -6 -17 -10 -37 -11 -62 -13 -63 -170 -63 -121
0 -144 2 -149 16 -3 9 -6 55 -6 103 l0 88 -33 1 -32 1 0 -102z"/>
<path d="M1103 922 c-18 -3 -23 -10 -23 -33 l0 -29 165 0 c125 0 165 -3 165
-12 0 -7 -9 -32 -20 -55 l-19 -42 -100 2 c-95 2 -101 1 -102 -18 -1 -22 -1
-320 0 -373 1 -31 3 -33 33 -30 l33 3 0 175 0 175 228 3 227 2 0 -179 0 -179
35 1 c32 1 35 4 36 32 3 135 0 377 -4 382 -4 3 -76 5 -161 5 l-154 0 24 52 24
51 180 3 180 2 0 30 c0 24 -4 30 -22 31 -75 3 -707 3 -725 1z"/>
<path d="M192 533 c3 -421 -1 -389 51 -384 11 1 14 63 13 339 -1 185 0 345 3
355 3 16 14 17 90 15 l86 -3 -3 -61 c-2 -34 -5 -70 -7 -80 -2 -11 -4 -35 -4
-54 l-1 -34 -48 47 -49 48 -15 -23 c-14 -22 -14 -25 1 -38 9 -8 35 -36 58 -62
l42 -47 -20 -73 c-20 -74 -59 -159 -86 -190 -14 -16 -14 -19 8 -37 13 -11 26
-20 29 -21 12 0 75 129 95 194 l21 70 33 -47 c17 -26 35 -47 39 -47 4 0 13 9
20 20 15 24 7 43 -45 107 -28 34 -33 48 -29 75 5 29 16 158 21 228 1 24 3 25
89 28 l89 3 -6 -103 c-3 -57 -6 -105 -6 -108 -1 -2 -20 15 -44 38 -43 42 -44
42 -61 23 -18 -20 -17 -22 38 -82 31 -34 56 -66 56 -70 0 -33 -58 -192 -86
-236 l-36 -56 23 -18 c18 -13 27 -15 37 -6 21 17 68 116 87 183 10 32 20 63
22 67 3 5 23 -16 45 -47 22 -31 41 -56 44 -56 2 0 11 11 20 25 16 25 15 27
-41 101 -31 41 -54 81 -52 88 3 8 9 60 13 117 3 57 8 111 9 119 1 11 18 16 68
18 l67 3 -3 -323 -2 -323 -67 -3 c-72 -3 -80 -10 -54 -48 13 -18 21 -19 87
-13 94 8 99 15 99 138 1 109 1 524 0 589 l0 42 -370 0 -370 0 2 -387z"/>
<path d="M1443 632 c-6 -4 -12 -56 -15 -117 -3 -75 -10 -120 -21 -141 -34 -66
-149 -129 -294 -164 l-52 -12 20 -28 21 -28 72 20 c93 26 203 79 244 118 61
58 75 101 76 229 1 107 0 114 -20 121 -11 5 -25 5 -31 2z"/>
<path d="M1517 337 c-14 -22 -13 -24 81 -72 53 -28 121 -67 151 -87 l54 -37
19 24 c10 13 18 25 18 28 0 13 -279 167 -304 167 -2 0 -10 -10 -19 -23z"/>
</g>
</svg>
